<?xml version="1.0" encoding="utf-8"?>
<!-- Generator: Adobe Illustrator 24.3.0, SVG Export Plug-In . SVG Version: 6.00 Build 0)  -->
<svg version="1.1" id="Layer_1" xmlns="http://www.w3.org/2000/svg" xmlns:xlink="http://www.w3.org/1999/xlink" x="0px" y="0px"
	 viewBox="0 0 1600 1080" style="enable-background:new 0 0 1600 1080;" xml:space="preserve">
<style type="text/css">
	.st0{fill:none;}
	.st1{fill:none;stroke:#231F20;stroke-width:3.5;stroke-linecap:round;stroke-dasharray:0,6.5;}
	.st2{fill:none;stroke:#231F20;stroke-width:3.25;stroke-linecap:round;stroke-dasharray:0,6.5;}
	.st3{fill:none;stroke:#231F20;stroke-width:3;stroke-linecap:round;stroke-dasharray:0,6.5;}
	.st4{fill:none;stroke:#231F20;stroke-width:2.75;stroke-linecap:round;stroke-dasharray:0,6.5;}
	.st5{fill:none;stroke:#231F20;stroke-width:2.5;stroke-linecap:round;stroke-dasharray:0,6.5;}
	.st6{fill:none;stroke:#231F20;stroke-width:2.25;stroke-linecap:round;stroke-dasharray:0,6.5;}
	.st7{fill:none;stroke:#231F20;stroke-width:2;stroke-linecap:round;stroke-dasharray:0,6.5;}
	.st8{fill:none;stroke:#231F20;stroke-width:1.75;stroke-linecap:round;stroke-dasharray:0,6.5;}
	.st9{fill:none;stroke:#231F20;stroke-width:1.499;stroke-linecap:round;stroke-dasharray:0,6.5;}
	.st10{fill:none;stroke:#231F20;stroke-width:1.25;stroke-linecap:round;stroke-dasharray:0,6.5;}
	.st11{clip-path:url(#SVGID_2_);}
	.st12{fill:#FCE38A;}
	.st13{fill:url(#SVGID_3_);stroke:#001729;stroke-width:3.7314;stroke-miterlimit:10;}
	.st14{fill:#FFDE7D;}
	.st15{fill:url(#SVGID_4_);stroke:#001729;stroke-width:8.9491;stroke-miterlimit:10;}
	.st16{fill:#B6D5FF;}
	.st17{fill:url(#SVGID_5_);stroke:#001729;stroke-width:5.2726;stroke-miterlimit:10;}
</style>
<pattern  width="83" height="65" patternUnits="userSpaceOnUse" id="Undulating_Fine_Dots" viewBox="1.75 -132.25 83 65" style="overflow:visible;">
	<g>
		<rect x="1.75" y="-132.25" class="st0" width="83" height="65"/>
		<g>
			<line class="st1" x1="84.75" y1="-67.25" x2="84.75" y2="-1.75"/>
		</g>
		<g>
			<line class="st1" x1="1.75" y1="-67.25" x2="1.75" y2="-1.75"/>
			<line class="st2" x1="6.36" y1="-70.5" x2="6.36" y2="-1.75"/>
			<line class="st3" x1="10.97" y1="-67.25" x2="10.97" y2="-1.75"/>
			<line class="st4" x1="15.58" y1="-70.5" x2="15.58" y2="-1.75"/>
			<line class="st5" x1="20.2" y1="-67.25" x2="20.2" y2="-1.75"/>
			<line class="st6" x1="24.81" y1="-70.5" x2="24.81" y2="-1.75"/>
			<line class="st7" x1="29.42" y1="-67.25" x2="29.42" y2="-1.75"/>
			<line class="st8" x1="34.03" y1="-70.5" x2="34.03" y2="-1.75"/>
			<line class="st9" x1="38.64" y1="-67.25" x2="38.64" y2="-1.75"/>
			<line class="st10" x1="43.25" y1="-70.5" x2="43.25" y2="-1.75"/>
			<line class="st1" x1="84.75" y1="-67.25" x2="84.75" y2="-1.75"/>
			<line class="st2" x1="80.14" y1="-70.5" x2="80.14" y2="-1.75"/>
			<line class="st3" x1="75.53" y1="-67.25" x2="75.53" y2="-1.75"/>
			<line class="st4" x1="70.92" y1="-70.5" x2="70.92" y2="-1.75"/>
			<line class="st5" x1="66.3" y1="-67.25" x2="66.3" y2="-1.75"/>
			<line class="st6" x1="61.69" y1="-70.5" x2="61.69" y2="-1.75"/>
			<line class="st7" x1="57.08" y1="-67.25" x2="57.08" y2="-1.75"/>
			<line class="st8" x1="52.47" y1="-70.5" x2="52.47" y2="-1.75"/>
			<line class="st9" x1="47.86" y1="-67.25" x2="47.86" y2="-1.75"/>
		</g>
		<g>
			<line class="st1" x1="1.75" y1="-67.25" x2="1.75" y2="-1.75"/>
		</g>
		<g>
			<line class="st1" x1="84.75" y1="-132.25" x2="84.75" y2="-66.75"/>
		</g>
		<g>
			<line class="st1" x1="1.75" y1="-132.25" x2="1.75" y2="-66.75"/>
			<line class="st2" x1="6.36" y1="-135.5" x2="6.36" y2="-66.75"/>
			<line class="st3" x1="10.97" y1="-132.25" x2="10.97" y2="-66.75"/>
			<line class="st4" x1="15.58" y1="-135.5" x2="15.58" y2="-66.75"/>
			<line class="st5" x1="20.2" y1="-132.25" x2="20.2" y2="-66.75"/>
			<line class="st6" x1="24.81" y1="-135.5" x2="24.81" y2="-66.75"/>
			<line class="st7" x1="29.42" y1="-132.25" x2="29.42" y2="-66.75"/>
			<line class="st8" x1="34.03" y1="-135.5" x2="34.03" y2="-66.75"/>
			<line class="st9" x1="38.64" y1="-132.25" x2="38.64" y2="-66.75"/>
			<line class="st10" x1="43.25" y1="-135.5" x2="43.25" y2="-66.75"/>
			<line class="st1" x1="84.75" y1="-132.25" x2="84.75" y2="-66.75"/>
			<line class="st2" x1="80.14" y1="-135.5" x2="80.14" y2="-66.75"/>
			<line class="st3" x1="75.53" y1="-132.25" x2="75.53" y2="-66.75"/>
			<line class="st4" x1="70.92" y1="-135.5" x2="70.92" y2="-66.75"/>
			<line class="st5" x1="66.3" y1="-132.25" x2="66.3" y2="-66.75"/>
			<line class="st6" x1="61.69" y1="-135.5" x2="61.69" y2="-66.75"/>
			<line class="st7" x1="57.08" y1="-132.25" x2="57.08" y2="-66.75"/>
			<line class="st8" x1="52.47" y1="-135.5" x2="52.47" y2="-66.75"/>
			<line class="st9" x1="47.86" y1="-132.25" x2="47.86" y2="-66.75"/>
		</g>
		<g>
			<line class="st1" x1="1.75" y1="-132.25" x2="1.75" y2="-66.75"/>
		</g>
		<g>
			<line class="st1" x1="84.75" y1="-197.25" x2="84.75" y2="-131.75"/>
		</g>
		<g>
			<line class="st1" x1="1.75" y1="-197.25" x2="1.75" y2="-131.75"/>
			<line class="st2" x1="6.36" y1="-200.5" x2="6.36" y2="-131.75"/>
			<line class="st3" x1="10.97" y1="-197.25" x2="10.97" y2="-131.75"/>
			<line class="st4" x1="15.58" y1="-200.5" x2="15.58" y2="-131.75"/>
			<line class="st5" x1="20.2" y1="-197.25" x2="20.2" y2="-131.75"/>
			<line class="st6" x1="24.81" y1="-200.5" x2="24.81" y2="-131.75"/>
			<line class="st7" x1="29.42" y1="-197.25" x2="29.42" y2="-131.75"/>
			<line class="st8" x1="34.03" y1="-200.5" x2="34.03" y2="-131.75"/>
			<line class="st9" x1="38.64" y1="-197.25" x2="38.64" y2="-131.75"/>
			<line class="st10" x1="43.25" y1="-200.5" x2="43.25" y2="-131.75"/>
			<line class="st1" x1="84.75" y1="-197.25" x2="84.75" y2="-131.75"/>
			<line class="st2" x1="80.14" y1="-200.5" x2="80.14" y2="-131.75"/>
			<line class="st3" x1="75.53" y1="-197.25" x2="75.53" y2="-131.75"/>
			<line class="st4" x1="70.92" y1="-200.5" x2="70.92" y2="-131.75"/>
			<line class="st5" x1="66.3" y1="-197.25" x2="66.3" y2="-131.75"/>
			<line class="st6" x1="61.69" y1="-200.5" x2="61.69" y2="-131.75"/>
			<line class="st7" x1="57.08" y1="-197.25" x2="57.08" y2="-131.75"/>
			<line class="st8" x1="52.47" y1="-200.5" x2="52.47" y2="-131.75"/>
			<line class="st9" x1="47.86" y1="-197.25" x2="47.86" y2="-131.75"/>
		</g>
		<g>
			<line class="st1" x1="1.75" y1="-197.25" x2="1.75" y2="-131.75"/>
		</g>
	</g>
</pattern>
<g>
	<g>
		<defs>
			<rect id="SVGID_1_" width="1600" height="1080"/>
		</defs>
		<clipPath id="SVGID_2_">
			<use xlink:href="#SVGID_1_"  style="overflow:visible;"/>
		</clipPath>
		<g class="st11">
		</g>
	</g>
</g>
<g>
	<polygon class="st12" points="-273.45,612.92 125.71,-297.48 363.3,-134.72 -35.86,775.69 	"/>
	
		<pattern  id="SVGID_3_" xlink:href="#Undulating_Fine_Dots" patternTransform="matrix(-1.4652 6.494 -4.1585 2.378 -45171.2109 54885.8242)">
	</pattern>
	<polygon class="st13" points="-248.78,436.88 134.99,-229.86 348.77,-19.88 -35,646.86 	"/>
</g>
<path class="st14" d="M1646.05,469.49C1590.7,407.99,1535.35,346.5,1480,285c-61.32-35.65-122.63-71.29-183.95-106.94l258.17-324.02
	l350,291.43L1646.05,469.49z"/>
<pattern  id="SVGID_4_" xlink:href="#Undulating_Fine_Dots" patternTransform="matrix(4.4131 -0.3389 0.3315 4.5114 27457.2109 21117.5176)">
</pattern>
<polygon class="st15" points="1607.35,466 1237,202.16 1472.32,-143.03 1842.66,120.81 "/>
<polygon class="st16" points="422.78,1285.3 9.03,1588 -208.78,1109.97 204.97,807.27 "/>
<g>
	
		<pattern  id="SVGID_5_" xlink:href="#Undulating_Fine_Dots" patternTransform="matrix(2.6331 -4.9086 3.8737 3.3366 37818.0625 -21134.5352)">
	</pattern>
	<polygon class="st17" points="431,1256.77 -26.78,1430 -151.43,901.1 306.36,727.87 	"/>
</g>
</svg>
